<?xml version="1.0" encoding="UTF-8"?>
<svg version="1.1" xmlns="http://www.w3.org/2000/svg" width="74" height="68">
<path d="M0 0 C24.42 0 48.84 0 74 0 C74 22.44 74 44.88 74 68 C49.58 68 25.16 68 0 68 C0 45.56 0 23.12 0 0 Z " fill="#010101" transform="translate(0,0)"/>
<path d="M0 0 C1.13308594 -0.020625 2.26617187 -0.04125 3.43359375 -0.0625 C10.14203386 -0.0939581 15.25320928 -0.01422507 20.39453125 4.78515625 C25.3211987 11.22772137 24.9642206 15.53013787 25 23.5 C25.020625 24.63308594 25.04125 25.76617187 25.0625 26.93359375 C25.09404212 33.65994995 24.95261612 38.65452963 20.28515625 43.89453125 C13.79309181 49.04340995 7.89395436 48.49098733 -0.125 48.5625 C-1.73955078 48.60600586 -1.73955078 48.60600586 -3.38671875 48.65039062 C-9.68222266 48.70084781 -13.49172512 48.51765079 -18.25 44.25 C-24.01210706 37.86496244 -23.49272085 32.16678724 -23.5625 23.9375 C-23.59150391 22.80892578 -23.62050781 21.68035156 -23.65039062 20.51757812 C-23.69939896 14.11256632 -23.64548586 10.06982238 -19.25 5.25 C-12.85237102 -0.38600648 -8.28932439 0.03721358 0 0 Z " fill="#AC57DD" transform="translate(37.25,9.75)"/>
</svg>
